<?xml version="1.0" encoding="UTF-8" standalone="no"?><!DOCTYPE svg PUBLIC "-//W3C//DTD SVG 1.1//EN" "http://www.w3.org/Graphics/SVG/1.1/DTD/svg11.dtd"><svg width="100%" height="100%" viewBox="0 0 2000 2000" version="1.1" xmlns="http://www.w3.org/2000/svg" xmlns:xlink="http://www.w3.org/1999/xlink" xml:space="preserve" xmlns:serif="http://www.serif.com/" style="fill-rule:evenodd;clip-rule:evenodd;stroke-linejoin:round;stroke-miterlimit:2;"><path d="M138.446,138.446l1723.108,617.857l0,258.466l-625.747,223.481l96.545,-269.249l243.659,-84.696l-1336.257,-462.198l-101.308,-283.661Zm829.612,1195.429l-829.612,296.29l101.308,-281.373l821.972,-285.72l-93.668,270.803Z" fill="#ffffff"/><path d="M534.163,1246.454l-294.41,-824.347l276.723,95.716l227.877,655.568l-210.191,73.063Zm710.217,-711.452l93.137,-269.267l292.648,-127.289l-169.945,473.95l-215.84,-77.394Zm-360.075,1041.008l287.601,-831.48l214.349,74.141l-373.948,1042.882l-258.466,0l-142.905,-400.135l207.746,-74.195l65.623,188.787Z" fill="#ff4655"/></svg>